<svg xmlns="http://www.w3.org/2000/svg" xmlns:xlink="http://www.w3.org/1999/xlink" width="84" height="80" viewBox="0 0 84 80">
    <defs>
        <path id="o3m727p25a" d="M0.035 -0.627L82.035 -0.627 82.035 79.373 0.035 79.373z"/>
    </defs>
    <g fill="none" fill-rule="evenodd">
        <g>
            <g transform="translate(-35.000000, -2405.000000) translate(35.964821, 2405.627306)">
                <g transform="translate(-0.000000, 0.000000)">
                    <mask id="f8pzejmmib" fill="#fff">
                        <use xlink:href="#o3m727p25a"/>
                    </mask>
                    <path fill="#1A1A1A" d="M5.477 31.618l21.19 15.772c.47.345.668.963.487 1.52L19.058 74.43l21.195-15.773c.47-.344 1.1-.344 1.57 0L63.008 74.43l-8.09-25.518c-.177-.558.016-1.176.486-1.52l21.19-15.773H50.4c-.577 0-1.09-.383-1.266-.946L41.033 5.159l-8.09 25.513c-.182.563-.69.946-1.272.946H5.477zm11.044 47.75c-.272 0-.55-.083-.785-.258-.465-.35-.662-.962-.48-1.531l9.056-28.565L.586 31.355c-.47-.344-.663-.968-.486-1.526.176-.563.694-.946 1.265-.946h29.34L39.767.313c.176-.557.69-.94 1.266-.94.582 0 1.09.383 1.27.94l9.069 28.57H80.7c.577 0 1.09.383 1.271.946.177.558-.021 1.182-.486 1.526l-23.732 17.66 9.063 28.564c.181.569-.016 1.181-.48 1.531-.47.35-1.101.35-1.566 0L41.033 61.45 17.306 79.11c-.235.175-.513.257-.785.257z" mask="url(#f8pzejmmib)"/>
                </g>
                <circle cx="40.035" cy="43.373" r="9" fill="#EC5151"/>
            </g>
        </g>
    </g>
</svg>
