<svg xmlns="http://www.w3.org/2000/svg" xmlns:xlink="http://www.w3.org/1999/xlink" width="74" height="64" viewBox="0 0 74 64">
    <defs>
        <path id="c69p4xk8qa" d="M0 0L74 0 74 50 0 50z"/>
        <path id="7ob9lst23c" d="M0 0L27 0 27 56 0 56z"/>
        <path id="01uxcldlke" d="M4.235 0.326L27 0 27 56 0 56z"/>
    </defs>
    <g fill="none" fill-rule="evenodd">
        <g>
            <g>
                <g>
                    <g transform="translate(-42.000000, -2840.000000) translate(42.000000, 2840.000000) translate(0.000000, 14.000000)">
                        <mask id="xhkxr8p68b" fill="#fff">
                            <use xlink:href="#c69p4xk8qa"/>
                        </mask>
                        <path fill="#1A1A1A" d="M44.231 50H29.767c-.356 0-.707-.141-.956-.402l-3.301-3.364H1.348c-.746 0-1.351-.608-1.351-1.357V1.357C-.003.607.602 0 1.347 0 2.1 0 2.699.608 2.699 1.357v42.168h23.374c.362 0 .708.142.962.402l3.3 3.365H43.67l3.3-3.365c.255-.26.6-.402.963-.402H71.3V1.357C71.3.607 71.906 0 72.65 0c.746 0 1.351.608 1.351 1.357v43.52c0 .749-.605 1.357-1.35 1.357H48.5l-3.307 3.364c-.254.26-.6.402-.962.402" mask="url(#xhkxr8p68b)"/>
                    </g>
                    <g transform="translate(-42.000000, -2840.000000) translate(42.000000, 2840.000000) translate(13.000000, 0.000000)">
                        <mask id="4gn3yxnehd" fill="#fff">
                            <use xlink:href="#7ob9lst23c"/>
                        </mask>
                        <path fill="#1A1A1A" d="M2.814 42.757c3.297.921 13.545 3.803 16.707 4.95 1.818.659 3.427 1.923 4.671 3.15v-37.11c0-4.527-12.47-8.813-21.378-10.752v39.762zM25.599 56c-.479 0-.929-.23-1.193-.627-.023-.037-2.684-4.002-5.886-5.159-3.608-1.312-17.366-5.127-17.507-5.164C.41 44.878 0 44.359 0 43.759V1.339C0 .938.191.557.518.3c.326-.252.76-.354 1.17-.273C4.277.53 27 5.186 27 13.747V54.66c0 .594-.41 1.12-1.013 1.285-.13.038-.259.054-.388.054z" mask="url(#4gn3yxnehd)"/>
                    </g>
                    <g transform="translate(-42.000000, -2840.000000) translate(42.000000, 2840.000000) translate(41.000000, 2.000000)">
                        <mask id="6yl94qef7f" fill="#fff">
                            <use xlink:href="#01uxcldlke"/>
                        </mask>
                        <path fill="#1A1A1A" d="M18.186 5C9.284 6.936-3.192 11.22-3.192 15.748v37.11c1.244-1.227 2.853-2.491 4.67-3.15 3.163-1.146 13.416-4.029 16.708-4.95V5zm-22.78 53c-.134 0-.264-.016-.393-.054C-5.59 57.78-6 57.256-6 56.661V15.747c0-8.56 22.723-13.216 25.312-13.72.416-.08.844.016 1.17.274.327.257.518.637.518 1.033V45.76c0 .6-.41 1.12-1.013 1.29-.14.033-13.9 3.853-17.507 5.165-3.202 1.157-5.863 5.122-5.886 5.16-.264.396-.714.626-1.187.626z" mask="url(#6yl94qef7f)"/>
                    </g>
                </g>
                <path fill="#EC5151" d="M43 0H54V31H43z" transform="translate(-42.000000, -2840.000000) translate(42.000000, 2840.000000)"/>
            </g>
        </g>
    </g>
</svg>
