<svg xmlns="http://www.w3.org/2000/svg" xmlns:xlink="http://www.w3.org/1999/xlink" width="50" height="82" viewBox="0 0 50 82">
    <defs>
        <path id="2heeqcd2ka" d="M0 0L50 0 50 82 0 82z"/>
    </defs>
    <g fill="none" fill-rule="evenodd">
        <g>
            <g>
                <g>
                    <g transform="translate(-43.000000, -1134.000000) translate(43.000000, 1134.000000)">
                        <mask id="tonvpxgghb" fill="#fff">
                            <use xlink:href="#2heeqcd2ka"/>
                        </mask>
                        <path fill="#1A1A1A" d="M6.7 2.68c-2.208 0-4.008 1.795-4.008 3.998v68.639c0 2.208 1.8 4.002 4.008 4.002H43.3c2.208 0 4.008-1.794 4.008-4.002V6.678c0-2.203-1.8-3.997-4.008-3.997H6.7zM43.3 82H6.7C3.005 82 0 79.002 0 75.317V6.678C-.001 2.998 3.005 0 6.7 0H43.3C46.989 0 50 2.998 50 6.678v68.639C50 79.002 46.989 82 43.299 82z" mask="url(#tonvpxgghb)"/>
                    </g>
                    <path fill="#1A1A1A" d="M27.76 77.5h-4.52c-.684 0-1.24-.672-1.24-1.5 0-.834.556-1.5 1.24-1.5h4.52c.69 0 1.24.666 1.24 1.5 0 .828-.55 1.5-1.24 1.5" transform="translate(-43.000000, -1134.000000) translate(43.000000, 1134.000000)"/>
                </g>
                <path fill="#EC5151" d="M19 26H31V57H19z" transform="translate(-43.000000, -1134.000000) translate(43.000000, 1134.000000)"/>
            </g>
        </g>
    </g>
</svg>
