<svg xmlns="http://www.w3.org/2000/svg" xmlns:xlink="http://www.w3.org/1999/xlink" width="75" height="77" viewBox="0 0 75 77">
    <defs>
        <path id="50cf69f6ya" d="M0 0L57 0 57 32 0 32z"/>
        <path id="9rluwptj6c" d="M0 0L32 0 32 32 0 32z"/>
        <path id="tvtphz4r2e" d="M0 0L43 0 43 25 0 25z"/>
    </defs>
    <g fill="none" fill-rule="evenodd">
        <g>
            <g>
                <g transform="translate(-39.000000, -1952.000000) translate(39.000000, 1952.000000) translate(0.000000, 17.000000)">
                    <mask id="mxgi0zwu1b" fill="#fff">
                        <use xlink:href="#50cf69f6ya"/>
                    </mask>
                    <path fill="#1A1A1A" d="M28.496 22.886c.314 0 .616.108.87.318.076.054 7.382 6.103 15.018 6.103 8.187 0 9.912-5.38 9.912-9.886V12.58c0-5.45-4.45-9.88-9.912-9.88H12.608c-5.462 0-9.907 4.43-9.907 9.88v6.842c0 6.837 3.056 9.886 9.907 9.886 8.182 0 14.91-6.011 14.98-6.076.259-.232.583-.345.908-.345M44.384 32c-7.041 0-13.53-4.295-15.856-6.033-2.233 1.76-8.42 6.033-15.92 6.033-8.366 0-12.61-4.23-12.61-12.579V12.58C-.003 5.645 5.653 0 12.607 0h31.776C51.338 0 57 5.645 57 12.579v6.842C57 27.42 52.398 32 44.384 32" mask="url(#mxgi0zwu1b)"/>
                </g>
                <path fill="#1A1A1A" d="M63.711 31c-.72 0-1.294-.58-1.294-1.294 0-4.844-1.884-9.388-5.306-12.814-3.427-3.42-7.977-5.304-12.822-5.304-.714 0-1.289-.58-1.289-1.294C43 9.58 43.575 9 44.289 9c5.534 0 10.73 2.153 14.644 6.065C62.847 18.978 65 24.18 65 29.706 65 30.42 64.425 31 63.711 31" transform="translate(-39.000000, -1952.000000) translate(39.000000, 1952.000000)"/>
                <g transform="translate(-39.000000, -1952.000000) translate(39.000000, 1952.000000) translate(43.000000, 0.000000)">
                    <mask id="8lp0gli5sd" fill="#fff">
                        <use xlink:href="#9rluwptj6c"/>
                    </mask>
                    <path fill="#1A1A1A" d="M30.652 32c-.753 0-1.354-.606-1.354-1.353 0-7.466-2.907-14.482-8.187-19.755C15.832 5.613 8.815 2.706 1.348 2.706.601 2.706 0 2.1 0 1.353S.601-.001 1.348-.001C9.54 0 17.23 3.19 23.028 8.975 28.811 14.763 32 22.461 32 30.647c0 .747-.601 1.353-1.348 1.353" mask="url(#8lp0gli5sd)"/>
                </g>
                <path fill="#EC5151" d="M48.784 28.5c0 2.367-1.917 4.293-4.284 4.293s-4.284-1.926-4.284-4.293 1.917-4.293 4.284-4.293 4.284 1.926 4.284 4.293" transform="translate(-39.000000, -1952.000000) translate(39.000000, 1952.000000)"/>
                <g transform="translate(-39.000000, -1952.000000) translate(39.000000, 1952.000000) translate(7.000000, 52.000000)">
                    <mask id="tpk9uuiabf" fill="#fff">
                        <use xlink:href="#tvtphz4r2e"/>
                    </mask>
                    <path fill="#1A1A1A" d="M1.34 0c.746 0 1.341.595 1.341 1.327v7.927c0 7.22 5.932 13.092 13.225 13.092h11.188c7.288 0 13.225-5.872 13.225-13.092V2.511c0-.738.595-1.327 1.34-1.327.735 0 1.341.59 1.341 1.327v6.743c0 8.686-7.138 15.747-15.906 15.747H15.906C7.133 25.001 0 17.94 0 9.254V1.327C0 .595.6 0 1.34 0" mask="url(#tpk9uuiabf)"/>
                </g>
            </g>
        </g>
    </g>
</svg>
