<svg xmlns="http://www.w3.org/2000/svg" width="36" height="69" viewBox="0 0 36 69">
    <g fill="none" fill-rule="evenodd">
        <g>
            <g>
                <g fill="#1A1A1A">
                    <path d="M2.5 69c-.69 0-1.25-.508-1.25-1.14V1.14C1.25.509 1.81 0 2.5 0s1.25.508 1.25 1.14v66.72c0 .632-.56 1.14-1.25 1.14" transform="translate(-48.000000, -3321.000000) translate(48.000000, 3321.000000)"/>
                    <path d="M2.162 39c-.4 0-.792-.204-1.006-.567-.321-.539-.13-1.228.424-1.545l30.938-17.39L1.58 2.113C1.026 1.8.835 1.11 1.156.572 1.477.023 2.185-.162 2.743.155l32.68 18.364c.358.204.577.576.577.98 0 .407-.219.779-.577.983L2.743 38.85c-.186.1-.386.15-.581.15" transform="translate(-48.000000, -3321.000000) translate(48.000000, 3321.000000)"/>
                </g>
                <path fill="#EC5151" d="M7.43 10.41L23.834 19.394 7.873 28.034z" transform="translate(-48.000000, -3321.000000) translate(48.000000, 3321.000000)"/>
            </g>
        </g>
    </g>
</svg>
