<svg xmlns="http://www.w3.org/2000/svg" xmlns:xlink="http://www.w3.org/1999/xlink" width="78" height="80" viewBox="0 0 78 80">
    <defs>
        <path id="rzn4cfnksa" d="M0 0L20 0 20 20 0 20z"/>
        <path id="rouub2n7ec" d="M0 0L20 0 20 20 0 20z"/>
        <path id="5jpq8csnae" d="M0 0L20 0 20 20 0 20z"/>
    </defs>
    <g fill="none" fill-rule="evenodd">
        <g>
            <g transform="translate(-41.000000, -1522.000000) translate(41.996190, 1522.627306)">
                <g>
                    <path fill="#1A1A1A" d="M46.024 30.09c-4.482 0-8.73 2.69-10.49 7.096-1.119 2.798-1.081 5.863.109 8.634 1.184 2.771 3.379 4.907 6.176 6.026 5.78 2.31 12.354-.505 14.668-6.287 2.303-5.776-.516-12.356-6.296-14.665-1.37-.55-2.776-.805-4.167-.805zm-.033 25.283c-1.722 0-3.482-.326-5.177-1.006-3.471-1.385-6.198-4.042-7.665-7.476-1.477-3.435-1.526-7.244-.141-10.71 2.868-7.173 11.022-10.672 18.193-7.809 7.166 2.864 10.67 11.025 7.801 18.198-2.184 5.466-7.453 8.803-13.01 8.803z" transform="translate(0.000000, -0.000000)"/>
                    <g transform="translate(0.000000, -0.000000) translate(-0.996190, 36.372694)">
                        <mask id="v5wm2f2ktb" fill="#fff">
                            <use xlink:href="#rzn4cfnksa"/>
                        </mask>
                        <path fill="#1A1A1A" d="M10.006 2.821c-2.847 0-5.547 1.712-6.671 4.514-1.463 3.672.328 7.858 4 9.326 1.779.712 3.727.684 5.49-.067 1.768-.757 3.129-2.153 3.835-3.932 1.469-3.672-.328-7.858-4-9.327-.869-.35-1.767-.514-2.654-.514M10 20c-1.26 0-2.508-.237-3.71-.717C1.171 17.238-1.33 11.408.707 6.284 2.764 1.166 8.594-1.33 13.706.714c5.123 2.045 7.626 7.875 5.58 12.993-.993 2.48-2.891 4.429-5.349 5.48-1.26.542-2.598.813-3.937.813" mask="url(#v5wm2f2ktb)"/>
                    </g>
                    <g transform="translate(0.000000, -0.000000) translate(57.003810, 59.372694)">
                        <mask id="em38wea6ud" fill="#fff">
                            <use xlink:href="#rouub2n7ec"/>
                        </mask>
                        <path fill="#1A1A1A" d="M10.004 2.827c-2.847 0-5.546 1.711-6.67 4.512-1.463 3.67.327 7.853 3.998 9.321 1.785.712 3.733.684 5.495-.067 1.762-.757 3.124-2.152 3.835-3.93.712-1.779.684-3.732-.073-5.488-.757-1.762-2.152-3.122-3.925-3.834-.876-.35-1.774-.514-2.66-.514m-.006 17.176c-1.254 0-2.508-.243-3.71-.723C1.17 17.236-1.333 11.41.712 6.288c.989-2.473 2.892-4.42 5.349-5.47C8.507-.239 11.229-.273 13.708.72c2.48.994 4.423 2.891 5.479 5.342 1.05 2.45 1.084 5.166.096 7.65-.994 2.473-2.892 4.421-5.349 5.471-1.26.542-2.598.819-3.936.819" mask="url(#em38wea6ud)"/>
                    </g>
                    <g transform="translate(0.000000, -0.000000) translate(48.003810, -0.627306)">
                        <mask id="cvv9vda2cf" fill="#fff">
                            <use xlink:href="#5jpq8csnae"/>
                        </mask>
                        <path fill="#1A1A1A" d="M10.012 2.823c-2.846 0-5.552 1.712-6.67 4.515-.712 1.78-.69 3.729.067 5.492.757 1.763 2.152 3.119 3.932 3.83 3.682 1.475 7.856-.321 9.325-4 1.463-3.673-.328-7.854-4-9.323-.869-.35-1.767-.514-2.654-.514zM9.99 20c-1.232 0-2.486-.226-3.694-.712-2.486-.994-4.434-2.893-5.485-5.345-1.05-2.458-1.079-5.17-.096-7.656C2.765 1.167 8.595-1.33 13.712.71c5.117 2.05 7.62 7.882 5.575 13.001C17.722 17.616 13.96 20 9.99 20z" mask="url(#cvv9vda2cf)"/>
                    </g>
                    <path fill="#1A1A1A" d="M17.383 47.069c-.674 0-1.265-.54-1.365-1.29-.11-.822.415-1.578 1.172-1.698l15.237-2.388c.746-.12 1.447.456 1.563 1.266.105.822-.414 1.584-1.17 1.704L17.581 47.05c-.072.012-.133.018-.199.018M50.39 31.373c-.166 0-.344-.032-.516-.1-.712-.264-1.057-1.032-.768-1.706l5.216-12.364c.284-.674 1.09-1.006 1.807-.737.712.274 1.062 1.037.773 1.71l-5.221 12.37c-.217.51-.734.827-1.29.827M62.545 65.373c-.433 0-.86-.172-1.146-.5l-10.08-11.39c-.503-.574-.392-1.386.246-1.833.625-.443 1.549-.344 2.052.218L63.69 63.264c.497.568.392 1.38-.245 1.828-.27.187-.585.28-.9.28" transform="translate(0.000000, -0.000000)"/>
                </g>
                <circle cx="46.004" cy="41.373" r="7" fill="#EC5151"/>
            </g>
        </g>
    </g>
</svg>
